<?xml version="1.0" encoding="UTF-8"?>
<svg width="191px" height="88px" viewBox="0 0 191 88" version="1.1" xmlns="http://www.w3.org/2000/svg" xmlns:xlink="http://www.w3.org/1999/xlink">
    <!-- Generator: Sketch 52.3 (67297) - http://www.bohemiancoding.com/sketch -->
    <title>DEL_PRI_Digital_CMYK</title>
    <desc>Created with Sketch.</desc>
    <g id="Page-1" stroke="none" stroke-width="1" fill="none" fill-rule="evenodd">
        <g id="DEL_PRI_Digital_CMYK">
            <path d="M180.37,30.39 C180.37,27.6285763 182.608576,25.39 185.37,25.39 C188.131424,25.39 190.37,27.6285763 190.37,30.39 C190.37,33.1514237 188.131424,35.39 185.37,35.39 C182.608576,35.39 180.37,33.1514237 180.37,30.39" id="Path" fill="#85BC22"></path>
            <path d="M29.77,16.77 C29.77,22.5566667 28.2133333,27.02 25.1,30.16 C21.9866667,33.3 17.61,34.8666667 11.97,34.86 L0.97,34.8600212 L0.97,0.15 L12.73,0.15 C18.17,0.15 22.37,1.57333333 25.33,4.42 C28.29,7.26666667 29.77,11.3833333 29.77,16.77 M20.27,17.1 C20.27,13.92 19.6533333,11.56 18.42,10.02 C17.0210779,8.41229908 14.9450825,7.55965813 12.82,7.72 L10.16,7.72 L10.16,27.17 L12.16,27.17 C14.94,27.17 16.98,26.34 18.28,24.68 C19.58,23.02 20.2466667,20.4933333 20.28,17.1" id="Shape" fill="#FFFFFF" fill-rule="nonzero"></path>
            <rect id="Rectangle" fill="#FFFFFF" x="60.15" y="0" width="8.73" height="34.86"></rect>
            <path d="M97.51,21.86 C97.51,26.0866667 96.3966667,29.3866667 94.17,31.76 C91.9433333,34.1333333 88.83,35.32 84.83,35.32 C81.3949515,35.4823845 78.0566783,34.1558217 75.67,31.68 C73.4033333,29.26 72.27,25.9866667 72.27,21.86 C72.27,17.7333333 73.3833333,14.4533333 75.61,12.02 C77.83,9.68 80.95,8.51 84.97,8.51 C87.2674562,8.46354089 89.5367148,9.02223375 91.55,10.13 C93.4466949,11.2108092 94.9811232,12.8287439 95.96,14.78 C97.032926,16.9829551 97.5643273,19.4102592 97.51,21.86 M81.13,21.86 C81.0314639,23.5913325 81.3183603,25.322957 81.97,26.93 C82.4860875,28.062568 83.6478894,28.7588534 84.89,28.68 C86.1194292,28.7580079 87.2663482,28.058667 87.76,26.93 C88.4015196,25.3166266 88.6880161,23.5840052 88.6,21.85 C88.692294,20.1408453 88.4018994,18.4326418 87.75,16.85 C87.1609429,15.8082219 86.0567832,15.1641053 84.86,15.1641053 C83.6632168,15.1641053 82.5590571,15.8082219 81.97,16.85 C81.3036229,18.4288438 81.0060793,20.1388644 81.1,21.85" id="Shape" fill="#FFFFFF" fill-rule="nonzero"></path>
            <rect id="Rectangle" fill="#FFFFFF" x="100.98" y="8.97" width="8.73" height="25.89"></rect>
            <rect id="Rectangle" fill="#FFFFFF" x="100.98" y="0" width="8.73" height="5.83"></rect>
            <path d="M127.38,28.26 C128.827928,28.204683 130.255489,27.9002267 131.6,27.36 L131.6,33.93 C130.520005,34.4091519 129.394262,34.7776988 128.24,35.03 C127.008735,35.2743773 125.755148,35.3883398 124.5,35.37 C121.566667,35.37 119.453333,34.6333333 118.16,33.16 C116.866667,31.6866667 116.22,29.43 116.22,26.39 L116.22,15.66 L113.17,15.66 L113.17,8.93 L116.22,8.93 L116.22,2.32 L125.02,0.79 L125.02,8.93 L130.59,8.93 L130.59,15.62 L125.02,15.62 L125.02,25.7 C125.02,27.38 125.81,28.22 127.38,28.22" id="Path" fill="#FFFFFF"></path>
            <path d="M147.58,28.26 C149.027928,28.204683 150.455489,27.9002267 151.8,27.36 L151.8,33.93 C150.720005,34.4091519 149.594262,34.7776988 148.44,35.03 C147.208672,35.2739374 145.955131,35.3878957 144.7,35.37 C141.773333,35.37 139.66,34.6333333 138.36,33.16 C137.06,31.6866667 136.413333,29.43 136.42,26.39 L136.42,15.66 L133.36,15.66 L133.36,8.93 L136.42,8.93 L136.42,2.22 L145.21,0.79 L145.21,8.93 L150.78,8.93 L150.78,15.62 L145.21,15.62 L145.21,25.7 C145.21,27.38 146,28.22 147.58,28.22" id="Path" fill="#FFFFFF"></path>
            <path d="M175.11,11.56 C173.043333,9.56 170.103333,8.56 166.29,8.56 C162.29,8.56 159.21,9.73 157.05,12.07 C154.89,14.41 153.813333,17.7633333 153.82,22.13 C153.82,26.37 154.983333,29.6366667 157.31,31.93 C159.636667,34.2233333 162.906667,35.37 167.12,35.37 C168.869278,35.3927384 170.61686,35.2521284 172.34,34.95 C173.808736,34.6724963 175.227746,34.1770225 176.55,33.48 L175.21,27.65 C174.294588,28.0274586 173.351889,28.3350058 172.39,28.57 C171.00071,28.8732634 169.581963,29.0208399 168.16,29.01 C166.72226,29.0933379 165.302508,28.6567642 164.16,27.78 C163.171237,26.9234132 162.605228,25.6781933 162.61,24.37 L178.21,24.37 L178.21,20.37 C178.21,16.55 177.17,13.62 175.09,11.58 L175.11,11.56 Z M162.79,18.72 C162.80332,17.568003 163.233122,16.4597518 164,15.6 C164.693648,14.9381711 165.62151,14.5785347 166.58,14.6 C167.593198,14.5524976 168.573902,14.9638789 169.25,15.72 C169.93288,16.5674104 170.287858,17.6323434 170.25,18.72 L162.79,18.72 Z" id="Shape" fill="#FFFFFF" fill-rule="nonzero"></path>
            <path d="M53.66,11.56 C51.59,9.56 48.66,8.56 44.83,8.56 C40.83,8.56 37.7533333,9.73 35.6,12.07 C33.4466667,14.41 32.3666667,17.7633333 32.36,22.13 C32.36,26.37 33.5233333,29.6366667 35.85,31.93 C38.1766667,34.2233333 41.4466667,35.37 45.66,35.37 C47.4092785,35.3927384 49.1568602,35.2521284 50.88,34.95 C52.3521743,34.6734565 53.7746222,34.1779592 55.1,33.48 L53.76,27.65 C52.8440687,28.0260475 51.9014769,28.3335597 50.94,28.57 C49.5505396,28.8722041 48.1319114,29.0197683 46.71,29.01 C45.2722602,29.0933379 43.8525084,28.6567642 42.71,27.78 C41.7153133,26.9269381 41.1450396,25.6803784 41.15,24.37 L56.75,24.37 L56.75,20.37 C56.75,16.55 55.75,13.62 53.64,11.58 L53.66,11.56 Z M41.33,18.72 C41.3460765,17.5667038 41.779493,16.4582945 42.55,15.6 C43.2418317,14.9353175 44.170928,14.5752027 45.13,14.6 C46.1397588,14.555547 47.1161537,14.9666607 47.79,15.72 C48.4777368,16.5647494 48.8333398,17.6315585 48.79,18.72 L41.33,18.72 Z" id="Shape" fill="#FFFFFF" fill-rule="nonzero"></path>
            <path d="M25.89,59.58 C25.89,65.09 24.45,69.24 21.56,72.06 C18.67,74.88 14.44,76.29 8.85,76.29 L0.97,76.29 L0.97,43.5 L9.83,43.5 C15.0566667,43.5 19.0366667,44.87 21.77,47.61 C24.53,50.34 25.89,54.34 25.89,59.58 Z M23.4,59.67 C23.4,55.0033333 22.2066667,51.4733333 19.82,49.08 C17.4333333,46.6866667 13.9333333,45.5 9.32,45.52 L3.32,45.5197514 L3.32,74.27 L8.74,74.27 C18.5133333,74.27 23.4,69.4033333 23.4,59.67 Z" id="Shape" fill="#FFFFFF" fill-rule="nonzero"></path>
            <polygon id="Path" fill="#FFFFFF" points="32.48 76.29 30.26 76.29 30.26 51.93 32.48 51.93"></polygon>
            <polygon id="Path" fill="#FFFFFF" points="32.48 49.07 30.26 49.07 30.26 46.07 32.48 46.07"></polygon>
            <polygon id="Path" fill="#FFFFFF" points="63.12 76.29 60.9 76.29 60.9 51.93 63.12 51.93"></polygon>
            <polygon id="Path" fill="#FFFFFF" points="63.12 49.07 60.9 49.07 60.9 46.07 63.12 46.07"></polygon>
            <path d="M56.97,51.93 L56.97,53.48 L51.97,53.79 C53.2583435,55.3414097 53.9655858,57.2933985 53.97,59.31 C54.0480966,61.4634052 53.1912368,63.5453923 51.62,65.02 C49.8890394,66.5421375 47.6320011,67.3279744 45.33,67.21 C44.5507497,67.230591 43.7711784,67.1837498 43,67.07 C42.217248,67.4573928 41.533218,68.0182974 41,68.71 C40.5573968,69.2832298 40.3150099,69.9858005 40.31,70.71 C40.2607392,71.39966 40.6001672,72.0592303 41.19,72.42 C42.1268408,72.8552519 43.1601881,73.0412544 44.19,72.96 L48.45,72.96 C50.5968197,72.8170842 52.7316129,73.3788719 54.53,74.56 C55.9697934,75.6970532 56.7586622,77.4692039 56.64,79.3 C56.7449037,81.7158679 55.5513784,84.0037759 53.51,85.3 C51.43,86.69 48.45,87.39 44.6,87.39 C41.5266667,87.39 39.1533333,86.8 37.48,85.62 C35.8393902,84.5260685 34.8821145,82.660705 34.95,80.69 C34.8978672,79.1483596 35.4588198,77.6488902 36.51,76.52 C37.6586097,75.3537942 39.1332284,74.5624504 40.74,74.25 C40.0361285,73.9488217 39.4251847,73.4655894 38.97,72.85 C38.5306336,72.2769013 38.2980294,71.5720399 38.31,70.85 C38.31,69.2233333 39.35,67.79 41.43,66.55 C40.0591068,66.0096188 38.8961497,65.046326 38.11,63.8 C36.173594,60.5414098 36.6349281,56.3934849 39.24,53.64 C40.9561671,52.1042753 43.2101668,51.3098033 45.51,51.43 C46.7672512,51.3846053 48.0235471,51.5433309 49.23,51.9 L56.97,51.93 Z M37.27,80.42 C37.27,83.7533333 39.76,85.42 44.74,85.42 C51.1266667,85.42 54.3233333,83.38 54.33,79.3 C54.4326158,78.045624 53.861516,76.8310852 52.83,76.11 C51.3337285,75.3334183 49.6513204,74.9872438 47.97,75.11 L43.97,75.11 C39.5,75.15 37.27,76.93 37.27,80.42 Z M39.13,59.52 C39.0233352,61.1719673 39.6530315,62.7864792 40.85,63.93 C43.5884541,66.0034669 47.3715459,66.0034669 50.11,63.93 C51.2546097,62.73008 51.842439,61.1044778 51.73,59.45 C51.8653136,57.7233469 51.2578299,56.0209374 50.06,54.77 C48.7643992,53.6643111 47.0900303,53.104993 45.39,53.21 C43.6961197,53.116343 42.0376644,53.7197462 40.8,54.88 C39.6389859,56.1373238 39.0365438,57.811175 39.13,59.52 Z" id="Shape" fill="#FFFFFF" fill-rule="nonzero"></path>
            <path d="M98.9,76.29 L98.34,72.43 L98.16,72.43 C97.1579394,73.8023951 95.867781,74.9389632 94.38,75.76 C92.9496166,76.4487452 91.3772575,76.7913071 89.79,76.76 C87.7639459,76.876624 85.7692903,76.2188881 84.21,74.92 C82.8364398,73.5938506 82.1066269,71.7364768 82.21,69.83 C82.1464697,67.5795166 83.2905979,65.4666933 85.21,64.29 C87.21,62.97 90.06,62.29 93.81,62.2 L98.46,62.07 L98.46,60.46 C98.5897232,58.600186 98.0895234,56.7508559 97.04,55.21 C95.884446,53.9396697 94.2002223,53.2844881 92.49,53.44 C90.0389801,53.4914551 87.6370006,54.1365581 85.49,55.32 L84.66,53.39 C87.135568,52.1852618 89.8470515,51.5432481 92.6,51.51 C95.2666667,51.51 97.2666667,52.2033333 98.6,53.59 C99.9333333,54.9766667 100.6,57.1466667 100.6,60.1 L100.6,76.31 L98.9,76.29 Z M89.9,74.72 C92.1890962,74.9183058 94.4485818,74.0933102 96.071349,72.4666839 C97.6941162,70.8400576 98.5137425,68.5786187 98.31,66.29 L98.31,63.93 L94.04,64.11 C90.62,64.27 88.18,64.81 86.72,65.71 C85.2836675,66.615941 84.4585407,68.2354921 84.57,69.93 C84.4897757,71.2619745 85.0021982,72.5613316 85.97,73.48 C87.095761,74.3895346 88.5271692,74.8332712 89.97,74.72 L89.9,74.72 Z" id="Shape" fill="#FFFFFF" fill-rule="nonzero"></path>
            <polygon id="Path" fill="#FFFFFF" points="108.97 76.29 106.77 76.29 106.77 41.4 108.97 41.4"></polygon>
            <path d="M76.34,74.76 C77.5758521,74.7802055 78.8101146,74.6628164 80.02,74.41 L80.02,76.2 C78.8170137,76.5784655 77.560944,76.7607982 76.3,76.74 C74.533858,76.8860608 72.7918893,76.2542776 71.53,75.01 C70.51,73.8633333 70,72.0533333 70,69.58 L70,53.84 L66.39,53.84 L66.39,51.93 L69.97,51.93 L69.97,46.47 L72.23,46.04 L72.23,51.93 L79.38,51.93 L79.38,53.86 L72.23,53.86 L72.23,69.29 C72.1231189,70.7437096 72.4727127,72.1945237 73.23,73.44 C73.9796844,74.3737323 75.1475616,74.869423 76.34,74.76 Z" id="Path" fill="#FFFFFF"></path>
        </g>
    </g>
</svg>